<svg id="visual" viewBox="0 0 900 600" width="900" height="600" xmlns="http://www.w3.org/2000/svg" xmlns:xlink="http://www.w3.org/1999/xlink" version="1.1"><rect x="0" y="0" width="900" height="600" fill="#001220"></rect><path d="M0 278L21.5 270.5C43 263 86 248 128.8 251.7C171.7 255.3 214.3 277.7 257.2 284C300 290.3 343 280.7 385.8 275C428.7 269.3 471.3 267.7 514.2 260.7C557 253.7 600 241.3 642.8 235.5C685.7 229.7 728.3 230.3 771.2 239.5C814 248.7 857 266.3 878.5 275.2L900 284L900 601L878.5 601C857 601 814 601 771.2 601C728.3 601 685.7 601 642.8 601C600 601 557 601 514.2 601C471.3 601 428.7 601 385.8 601C343 601 300 601 257.2 601C214.3 601 171.7 601 128.8 601C86 601 43 601 21.5 601L0 601Z" fill="#fa7268"></path><path d="M0 379L21.5 379.2C43 379.3 86 379.7 128.8 382.3C171.7 385 214.3 390 257.2 381.3C300 372.7 343 350.3 385.8 346.7C428.7 343 471.3 358 514.2 357.8C557 357.7 600 342.3 642.8 332.8C685.7 323.3 728.3 319.7 771.2 322C814 324.3 857 332.7 878.5 336.8L900 341L900 601L878.5 601C857 601 814 601 771.2 601C728.3 601 685.7 601 642.8 601C600 601 557 601 514.2 601C471.3 601 428.7 601 385.8 601C343 601 300 601 257.2 601C214.3 601 171.7 601 128.8 601C86 601 43 601 21.5 601L0 601Z" fill="#eb5967"></path><path d="M0 420L21.5 424.5C43 429 86 438 128.8 445.2C171.7 452.3 214.3 457.7 257.2 459.3C300 461 343 459 385.8 449.2C428.7 439.3 471.3 421.7 514.2 411.3C557 401 600 398 642.8 409C685.7 420 728.3 445 771.2 453.2C814 461.3 857 452.7 878.5 448.3L900 444L900 601L878.5 601C857 601 814 601 771.2 601C728.3 601 685.7 601 642.8 601C600 601 557 601 514.2 601C471.3 601 428.7 601 385.8 601C343 601 300 601 257.2 601C214.3 601 171.7 601 128.8 601C86 601 43 601 21.5 601L0 601Z" fill="#da3f67"></path><path d="M0 530L21.5 523.2C43 516.3 86 502.7 128.8 500.8C171.7 499 214.3 509 257.2 514.3C300 519.7 343 520.3 385.8 526.7C428.7 533 471.3 545 514.2 547C557 549 600 541 642.8 537.7C685.7 534.3 728.3 535.7 771.2 535.8C814 536 857 535 878.5 534.5L900 534L900 601L878.5 601C857 601 814 601 771.2 601C728.3 601 685.7 601 642.8 601C600 601 557 601 514.2 601C471.3 601 428.7 601 385.8 601C343 601 300 601 257.2 601C214.3 601 171.7 601 128.8 601C86 601 43 601 21.5 601L0 601Z" fill="#c62368"></path></svg>